<?xml version="1.0" encoding="utf-8"?>
<!-- Generator: Adobe Illustrator 24.2.3, SVG Export Plug-In . SVG Version: 6.00 Build 0)  -->
<svg version="1.1" id="Layer_1" xmlns="http://www.w3.org/2000/svg" xmlns:xlink="http://www.w3.org/1999/xlink" x="0px" y="0px"
	 viewBox="0 0 12 43" style="enable-background:new 0 0 12 43;" xml:space="preserve">
<style type="text/css">
	.st0{fill:none;}
	.st1{fill-rule:evenodd;clip-rule:evenodd;fill:#1D1D1D;}
</style>
<desc>Created with Sketch.</desc>
<g id="Icons">
	<g id="Rounded" transform="translate(-650.000000, -955.000000)">
		<g id="AV" transform="translate(100.000000, 852.000000)">
			<g id="_x2D_Round-_x2F_-AV-_x2F_-pause" transform="translate(544.000000, 98.000000)">
				<g>
					<rect id="Rectangle-Copy-67" y="29" class="st0" width="24" height="24"/>
					<path id="_xD83D__xDD39_Icon-Color" class="st1" d="M8,48c1.1,0,2-0.9,2-2V36c0-1.1-0.9-2-2-2s-2,0.9-2,2v10
						C6,47.1,6.9,48,8,48z M14,36v10c0,1.1,0.9,2,2,2s2-0.9,2-2V36c0-1.1-0.9-2-2-2S14,34.9,14,36z"/>
				</g>
			</g>
		</g>
	</g>
</g>
<g id="Icons_1_">
	<g id="Rounded_1_" transform="translate(-753.000000, -955.000000)">
		<g id="AV_1_" transform="translate(100.000000, 852.000000)">
			<g id="_x2D_Round-_x2F_-AV-_x2F_-play_x5F_arrow" transform="translate(646.000000, 98.000000)">
				<g>
					<rect id="Rectangle-Copy-50" x="0" y="0" class="st0" width="24" height="24"/>
					<path id="_xD83D__xDD39_Icon-Color_1_" class="st1" d="M7,6.9v10.4c0,0.8,0.9,1.3,1.5,0.8l8.1-5.2c0.6-0.4,0.6-1.3,0-1.7L8.6,6
						C7.9,5.6,7,6.1,7,6.9z"/>
				</g>
			</g>
		</g>
	</g>
</g>
</svg>
