<?xml version="1.0" encoding="UTF-8" standalone="no"?>
<!-- Created with Inkscape (http://www.inkscape.org/) -->
<svg
   xmlns:svg="http://www.w3.org/2000/svg"
   xmlns="http://www.w3.org/2000/svg"
   version="1.0"
   width="32"
   height="32"
   id="svg3817">
  <defs
     id="defs3819" />
  <g
     transform="translate(-613.65807,-433.08191)"
     id="layer1">
    <path
       d="M 643.69542,439.91882 L 637.75055,445.95126 L 631.68862,439.91882 L 632.6556,439.01082 L 636.60841,442.26119 C 635.71052,439.82082 634.11945,437.93691 631.83518,436.60946 C 630.15621,435.6139 628.33099,435.11611 626.35951,435.1161 C 623.48955,435.11611 621.01014,436.10186 618.92128,438.07334 C 616.87114,440.00611 615.74836,442.37827 615.55294,445.18983 C 615.53328,445.44364 615.52345,445.69745 615.52345,445.95126 L 613.62078,445.95126 C 613.62077,442.71073 614.70423,439.8798 616.87115,437.45847 C 618.97967,435.11581 621.58598,433.73952 624.69009,433.3296 C 625.23642,433.25156 625.79289,433.21254 626.35951,433.21253 C 629.6197,433.21254 632.46015,434.296 634.8809,436.4629 C 636.71593,438.08347 637.97514,440.05526 638.65855,442.37827 L 642.72933,439.01082 L 643.69542,439.91882 z "
       style="font-size:29.28461456px;font-style:normal;font-weight:normal;fill:#000000;fill-opacity:1;stroke:none;stroke-width:1px;stroke-linecap:butt;stroke-linejoin:miter;stroke-opacity:1;font-family:Arial"
       id="text3928" />
  </g>
</svg>
