<?xml version="1.0" encoding="UTF-8" standalone="no"?>
<!-- Created with Inkscape (http://www.inkscape.org/) -->
<svg
   xmlns:svg="http://www.w3.org/2000/svg"
   xmlns="http://www.w3.org/2000/svg"
   version="1.0"
   width="32"
   height="32"
   id="svg3817">
  <defs
     id="defs3819" />
  <g
     transform="translate(-613.65807,-433.08191)"
     id="layer1">
    <path
       d="M 643.69542,445.95126 L 641.79185,445.95126 C 641.77275,443.08131 640.77717,440.60191 638.80511,438.51304 C 636.85266,436.44384 634.47097,435.32136 631.66002,435.14559 C 631.40619,435.12594 631.16191,435.11611 630.92719,435.1161 C 628.05782,435.11611 625.57841,436.10186 623.48896,438.07334 C 622.6888,438.81571 622.02508,439.65518 621.49781,440.59177 C 621.1856,441.11906 620.92196,441.67553 620.70689,442.26119 L 624.6311,439.01082 L 625.59808,439.91882 L 619.56474,445.95126 L 613.62078,439.91882 L 614.55737,439.01082 L 618.65764,442.37827 C 619.49711,439.50832 621.16624,437.20467 623.66502,435.46732 C 625.85158,433.96414 628.2723,433.21254 630.92719,433.21253 C 634.18796,433.21254 637.02872,434.30583 639.44947,436.49239 C 641.79211,438.60092 643.1684,441.20723 643.57834,444.31133 C 643.65636,444.85768 643.69539,445.40432 643.69542,445.95126 L 643.69542,445.95126 z "
       style="font-size:29.28461456px;font-style:normal;font-weight:normal;fill:#000000;fill-opacity:1;stroke:none;stroke-width:1px;stroke-linecap:butt;stroke-linejoin:miter;stroke-opacity:1;font-family:Arial"
       id="text3928" />
  </g>
</svg>
