<?xml version="1.0" encoding="utf-8"?>
<!-- Generator: Adobe Illustrator 24.2.3, SVG Export Plug-In . SVG Version: 6.00 Build 0)  -->
<svg version="1.1" id="Layer_1" xmlns="http://www.w3.org/2000/svg" xmlns:xlink="http://www.w3.org/1999/xlink" x="0px" y="0px"
	 viewBox="0 0 18 55" style="enable-background:new 0 0 18 55;" xml:space="preserve">
<style type="text/css">
	.st0{fill:none;}
	.st1{fill-rule:evenodd;clip-rule:evenodd;fill:#1D1D1D;}
</style>
<desc>Created with Sketch.</desc>
<g id="Icons">
	<g id="Rounded" transform="translate(-783.000000, -997.000000)">
		<g id="AV" transform="translate(100.000000, 852.000000)">
			<g id="_x2D_Round-_x2F_-AV-_x2F_-volume_x5F_off" transform="translate(680.000000, 142.000000)">
				<g transform="translate(0.000000, 0.000000)">
					<rect id="Rectangle-Copy-85" y="37" class="st0" width="24" height="24"/>
					<path id="_xD83D__xDD39_Icon-Color" class="st1" d="M3.6,40.6c-0.4,0.4-0.4,1,0,1.4l3.7,3.7L7,46H4c-0.5,0-1,0.5-1,1v4
						c0,0.5,0.5,1,1,1h3l3.3,3.3c0.6,0.6,1.7,0.2,1.7-0.7v-4.2l4.2,4.2c-0.5,0.4-1,0.7-1.6,0.9C14.2,55.7,14,56,14,56.4
						c0,0.7,0.7,1.2,1.4,0.9c0.8-0.3,1.6-0.8,2.2-1.3l1.3,1.3c0.4,0.4,1,0.4,1.4,0s0.4-1,0-1.4L5.1,40.6C4.7,40.2,4,40.2,3.6,40.6z
						 M19,49c0,0.8-0.1,1.6-0.4,2.3l1.5,1.5c0.6-1.2,0.9-2.5,0.9-3.9c0-3.8-2.4-7.1-5.8-8.4c-0.6-0.2-1.2,0.2-1.2,0.9v0.2
						c0,0.4,0.3,0.7,0.6,0.8C17.2,43.5,19,46.1,19,49z M10.3,42.7l-0.2,0.2l1.9,1.9v-1.4C12,42.5,10.9,42.1,10.3,42.7z M16.5,49
						c0-1.8-1-3.3-2.5-4v1.8l2.5,2.5C16.5,49.2,16.5,49.1,16.5,49z"/>
				</g>
			</g>
		</g>
	</g>
</g>
<g id="Icons_1_">
	<g id="Rounded_1_" transform="translate(-817.000000, -997.000000)">
		<g id="AV_1_" transform="translate(100.000000, 852.000000)">
			<g id="_x2D_Round-_x2F_-AV-_x2F_-volume_x5F_up" transform="translate(714.000000, 142.000000)">
				<g transform="translate(0.000000, 0.000000)">
					<rect id="Rectangle-Copy-86" class="st0" width="24" height="24"/>
					<path id="_xD83D__xDD39_Icon-Color_1_" class="st1" d="M3,10v4c0,0.6,0.5,1,1,1h3l3.3,3.3c0.6,0.6,1.7,0.2,1.7-0.7V6.4
						c0-0.9-1.1-1.3-1.7-0.7L7,9H4C3.5,9,3,9.4,3,10z M16.5,12c0-1.8-1-3.3-2.5-4v8C15.5,15.3,16.5,13.7,16.5,12z M14,4.4v0.2
						c0,0.4,0.3,0.7,0.6,0.8C17.2,6.5,19,9,19,12s-1.8,5.5-4.4,6.5C14.2,18.6,14,19,14,19.4v0.2c0,0.6,0.6,1.1,1.2,0.9
						c3.4-1.3,5.8-4.6,5.8-8.4S18.6,5,15.2,3.7C14.6,3.3,14,3.8,14,4.4z"/>
				</g>
			</g>
		</g>
	</g>
</g>
</svg>
